<svg width="64" height="64" viewBox="0 0 64 64" fill="none" xmlns="http://www.w3.org/2000/svg">
<path fill-rule="evenodd" clip-rule="evenodd" d="M64 32C64 49.6731 49.6731 64 32 64C14.3269 64 0 49.6731 0 32C0 14.3269 14.3269 0 32 0C49.6731 0 64 14.3269 64 32ZM41.2843 29.6321L35.8378 24.2238C35.054 23.4455 35.0495 22.1792 35.8278 21.3954C36.6061 20.6116 37.8724 20.6071 38.6562 21.3854L47.538 30.2049C47.8859 30.5465 48.1094 31.0143 48.1345 31.5341C48.1361 31.5667 48.1369 31.5994 48.1369 31.6322C48.1369 31.6692 48.1359 31.7061 48.1338 31.7428C48.1111 32.1603 47.9603 32.5437 47.72 32.8544C47.6667 32.9234 47.6087 32.9892 47.5461 33.0514L38.6562 41.8789C37.8724 42.6572 36.6061 42.6528 35.8278 41.869C35.0495 41.0852 35.054 39.8189 35.8378 39.0406L41.2844 33.6321H23.9121C22.8075 33.6321 21.9121 32.7367 21.9121 31.6321C21.9121 30.5275 22.8075 29.6321 23.9121 29.6321H41.2843Z" fill="lightgray" fill-opacity="0.9"/>
</svg>
