<svg width="11" height="11" viewBox="0 0 11 11" fill="none" xmlns="http://www.w3.org/2000/svg">
<g clip-path="url(#clip0_8_11414)">
<mask id="mask0_8_11414" style="mask-type:luminance" maskUnits="userSpaceOnUse" x="0" y="0" width="11" height="11">
<path d="M10.4113 0.717697H0.420898V10.7081H10.4113V0.717697Z" fill="white"/>
</mask>
<g mask="url(#mask0_8_11414)">
<path d="M10.4113 5.71291C10.4113 8.47137 8.17494 10.7081 5.41611 10.7081C2.65729 10.7081 0.420898 8.47173 0.420898 5.71291C0.420898 2.95409 2.65729 0.717697 5.41611 0.717697C8.17494 0.717697 10.4113 2.95409 10.4113 5.71291Z" fill="#2FD35E"/>
<path d="M4.54653 7.92568C4.49487 7.92568 4.44381 7.91454 4.39683 7.89304C4.34985 7.87154 4.30805 7.84017 4.27428 7.80107L3.20688 6.56576C3.17525 6.53012 3.15102 6.48855 3.13559 6.44346C3.12016 6.39838 3.11385 6.35068 3.117 6.30313C3.12016 6.25559 3.13273 6.20914 3.15398 6.16649C3.17523 6.12385 3.20474 6.08584 3.2408 6.05469C3.27686 6.02354 3.31875 5.99987 3.36403 5.98503C3.40931 5.9702 3.45709 5.96452 3.50459 5.9683C3.55209 5.97209 3.59837 5.98527 3.64073 6.00709C3.6831 6.0289 3.7207 6.05891 3.75137 6.09538L4.52806 6.99488L7.06609 3.64275C7.09461 3.60508 7.13027 3.57339 7.17104 3.5495C7.21181 3.52561 7.25689 3.50998 7.30369 3.50351C7.3505 3.49704 7.39813 3.49985 7.44385 3.51179C7.48957 3.52372 7.53249 3.54455 7.57016 3.57307C7.60784 3.60159 7.63953 3.63726 7.66342 3.67802C7.68731 3.71879 7.70293 3.76387 7.7094 3.81068C7.71587 3.85749 7.71306 3.90511 7.70113 3.95083C7.68919 3.99655 7.66837 4.03947 7.63985 4.07715L4.83341 7.78308C4.8011 7.82582 4.75965 7.8608 4.71209 7.88547C4.66454 7.91014 4.61207 7.92388 4.55852 7.92568H4.54653Z" fill="white"/>
</g>
</g>
<defs>
<clipPath id="clip0_8_11414">
<rect width="9.99043" height="9.99043" fill="white" transform="translate(0.420898 0.717697)"/>
</clipPath>
</defs>
</svg>
