<svg width="107" height="95" viewBox="0 0 107 95" fill="none" xmlns="http://www.w3.org/2000/svg">
<g id="o que n&#195;&#163;o fazer">
<path id="Rectangle 6" d="M0 24.0118H106.612V94.1261H0V24.0118Z" fill="black"/>
<g id="O QUE N&#195;&#131;O FAZER">
<path id="Vector" d="M83.2749 67.2433H92.8535C93.9422 67.2433 95.0205 67.3584 96.0883 67.5887C97.177 67.7981 98.1401 68.1854 98.9776 68.7507C99.836 69.2951 100.527 70.0384 101.05 70.9805C101.574 71.9017 101.835 73.0637 101.835 74.4665C101.835 75.8274 101.5 77.0313 100.83 78.0781C100.161 79.104 99.1974 79.8996 97.9412 80.4649L103.594 89.4783H94.9891L90.718 81.5327H90.4981V89.4783H83.2749V67.2433ZM90.4353 76.6335H91.9114C92.1626 76.6335 92.4348 76.6125 92.7279 76.5707C93.042 76.5288 93.3246 76.4451 93.5759 76.3194C93.848 76.1729 94.0679 75.9844 94.2354 75.7541C94.4238 75.5029 94.518 75.1784 94.518 74.7806C94.518 74.3828 94.4447 74.0687 94.2982 73.8384C94.1516 73.6081 93.9632 73.4406 93.7329 73.3359C93.5026 73.2103 93.2513 73.137 92.9791 73.1161C92.707 73.0742 92.4557 73.0533 92.2254 73.0533H90.4353V76.6335Z" fill="#F7D125"/>
<path id="Vector_2" d="M64.3518 67.2433H79.6462V73.4615H71.3866V75.3773H79.1437V81.1873H71.3866V83.26H80.1801V89.4783H64.3518V67.2433Z" fill="#F7D125"/>
<path id="Vector_3" d="M42.5603 83.2286L50.8827 73.4301H42.9058V67.2433H60.6498V72.645L51.7935 83.103H60.901V89.4783H42.5603V83.2286Z" fill="#F7D125"/>
<path id="Vector_4" d="M25.0563 67.2433H33.0018L41.6697 89.4783H33.5357L32.3737 86.2121H25.3075L24.2083 89.4783H16.2942L25.0563 67.2433ZM28.9191 75.0004L27.0976 80.4963H30.7092L28.9191 75.0004Z" fill="#F7D125"/>
<path id="Vector_5" d="M9.62531 75.8484H16.4089V81.941H9.65671V89.4783H2.30786V67.2433H17.3196V73.4929H9.62531V75.8484Z" fill="#F7D125"/>
<path id="Vector_6" d="M77.8228 43.8389C77.8228 42.0592 78.1368 40.4576 78.7649 39.0339C79.393 37.5892 80.2514 36.3644 81.3402 35.3594C82.4498 34.3545 83.7584 33.5798 85.2658 33.0354C86.7733 32.4911 88.4064 32.2189 90.165 32.2189C91.9237 32.2189 93.5568 32.4911 95.0643 33.0354C96.5717 33.5798 97.8803 34.3545 98.99 35.3594C100.1 36.3644 100.968 37.5892 101.597 39.0339C102.225 40.4576 102.539 42.0592 102.539 43.8389C102.539 45.6185 102.225 47.2411 101.597 48.7067C100.968 50.1723 100.1 51.4285 98.99 52.4753C97.8803 53.5013 96.5717 54.2969 95.0643 54.8622C93.5568 55.4274 91.9237 55.7101 90.165 55.7101C88.4064 55.7101 86.7733 55.4274 85.2658 54.8622C83.7584 54.2969 82.4498 53.5013 81.3402 52.4753C80.2514 51.4285 79.393 50.1723 78.7649 48.7067C78.1368 47.2411 77.8228 45.6185 77.8228 43.8389ZM85.7683 43.8389C85.7683 44.5717 85.873 45.2416 86.0824 45.8488C86.3127 46.456 86.6162 46.9794 86.9931 47.4191C87.3909 47.8588 87.862 48.2042 88.4064 48.4555C88.9507 48.6858 89.5369 48.8009 90.165 48.8009C90.7932 48.8009 91.3689 48.6858 91.8923 48.4555C92.4367 48.2042 92.9078 47.8588 93.3056 47.4191C93.7034 46.9794 94.007 46.456 94.2163 45.8488C94.4466 45.2416 94.5618 44.5717 94.5618 43.8389C94.5618 43.127 94.4466 42.478 94.2163 41.8917C94.007 41.2846 93.7034 40.7821 93.3056 40.3843C92.9078 39.9655 92.4367 39.641 91.8923 39.4107C91.3689 39.1804 90.7932 39.0653 90.165 39.0653C89.5369 39.0653 88.9507 39.1804 88.4064 39.4107C87.862 39.641 87.3909 39.9655 86.9931 40.3843C86.6162 40.7821 86.3127 41.2846 86.0824 41.8917C85.873 42.478 85.7683 43.127 85.7683 43.8389Z" fill="white"/>
<path id="Vector_7" d="M61.1844 32.847H69.13L77.7979 55.082H69.6639L68.5019 51.8158H61.4357L60.3365 55.082H52.4224L61.1844 32.847ZM65.0473 40.6041L63.2258 46.1H66.8374L65.0473 40.6041ZM71.0771 26.8172C71.0353 27.4453 70.9306 28.021 70.7631 28.5445C70.5956 29.0679 70.3548 29.5285 70.0408 29.9263C69.7476 30.3241 69.3812 30.6382 68.9416 30.8685C68.5228 31.0778 68.0413 31.1825 67.4969 31.1825C67.0572 31.1825 66.628 31.1197 66.2093 30.9941C65.8115 30.8685 65.3928 30.6905 64.9531 30.4602C64.4506 30.188 64.0737 30.01 63.8225 29.9263C63.5713 29.8216 63.2886 29.7693 62.9746 29.7693C62.6396 29.7693 62.3779 29.8844 62.1894 30.1147C62.001 30.3241 61.8754 30.5858 61.8126 30.8999H59.3001C59.3629 29.7065 59.6979 28.7015 60.3051 27.885C60.9123 27.0475 61.7602 26.6287 62.8489 26.6287C63.3305 26.6287 63.7702 26.702 64.168 26.8486C64.5658 26.9742 64.995 27.1522 65.4556 27.3825C65.9371 27.6337 66.314 27.8117 66.5862 27.9164C66.8584 28.021 67.1619 28.0734 67.4969 28.0734C67.8319 28.0734 68.0727 27.9687 68.2192 27.7593C68.3867 27.55 68.5124 27.2359 68.5961 26.8172H71.0771Z" fill="white"/>
<path id="Vector_8" d="M30.1558 32.847H37.5988L43.9427 44.1215H44.0683L43.7543 32.847H50.8519V55.082H43.2204L37.0649 44.467H36.9393L37.2534 55.082H30.1558V32.847Z" fill="white"/>
<path id="Vector_9" d="M81.2725 0.568283H95.1103V6.19432H87.6373V7.9276H94.6556V13.1843H87.6373V15.0596H95.5933V20.6856H81.2725V0.568283Z" fill="#F7D125"/>
<path id="Vector_10" d="M68.276 21.2539C66.7037 21.2539 65.3303 21.0361 64.1559 20.6004C63.0004 20.1647 62.0343 19.568 61.2576 18.8103C60.481 18.0526 59.9032 17.1623 59.5243 16.1393C59.1455 15.0975 58.9561 13.9799 58.9561 12.7865V0.568283H65.7187V12.0477C65.7187 13.0138 65.946 13.7715 66.4006 14.3208C66.8742 14.8512 67.5372 15.1164 68.3896 15.1164C69.2421 15.1164 69.8956 14.8512 70.3502 14.3208C70.8238 13.7715 71.0606 13.0138 71.0606 12.0477V0.568283H77.7948V12.7865C77.7948 13.9799 77.5864 15.0975 77.1697 16.1393C76.7719 17.1623 76.1752 18.0526 75.3796 18.8103C74.584 19.568 73.5895 20.1647 72.396 20.6004C71.2216 21.0361 69.8482 21.2539 68.276 21.2539Z" fill="#F7D125"/>
<path id="Vector_11" d="M53.8342 15.5711L57.0166 15.3722V20.6856H44.5711C42.9799 20.6856 41.5213 20.4678 40.1953 20.0321C38.8693 19.5775 37.7327 18.9145 36.7856 18.0431C35.8385 17.1717 35.0997 16.1015 34.5693 14.8323C34.0389 13.5442 33.7737 12.0666 33.7737 10.3997C33.7737 8.86528 34.0578 7.4635 34.6261 6.19433C35.1944 4.90621 35.9711 3.80752 36.9561 2.89826C37.9601 1.97006 39.144 1.2597 40.5079 0.767188C41.8718 0.255729 43.3493 0 44.9405 0C46.5317 0 47.9998 0.255729 49.3447 0.767188C50.6897 1.2597 51.8452 1.95112 52.8113 2.84144C53.7963 3.73175 54.5635 4.80203 55.1129 6.05226C55.6622 7.30249 55.9369 8.66638 55.9369 10.1439C55.9369 10.7122 55.8706 11.271 55.738 11.8204C55.6243 12.3697 55.4633 12.8812 55.2549 13.3547C55.0655 13.8094 54.8382 14.2261 54.573 14.605C54.3267 14.9649 54.0805 15.249 53.8342 15.4574V15.5711ZM40.9625 10.5133C40.9625 11.1763 41.0572 11.7825 41.2467 12.3318C41.455 12.8812 41.7297 13.3547 42.0707 13.7525C42.4306 14.1503 42.8568 14.4629 43.3493 14.6902C43.8418 14.8986 44.3722 15.0028 44.9405 15.0028C45.5088 15.0028 46.0297 14.8986 46.5033 14.6902C46.9958 14.4629 47.422 14.1503 47.782 13.7525C48.1419 13.3547 48.4165 12.8812 48.606 12.3318C48.8143 11.7825 48.9185 11.1763 48.9185 10.5133C48.9185 9.86925 48.8143 9.28202 48.606 8.75162C48.4165 8.20228 48.1419 7.74765 47.782 7.38773C47.422 7.00887 46.9958 6.71526 46.5033 6.50689C46.0297 6.29852 45.5088 6.19433 44.9405 6.19433C44.3722 6.19433 43.8418 6.29852 43.3493 6.50689C42.8568 6.71526 42.4306 7.00887 42.0707 7.38773C41.7297 7.74765 41.455 8.20228 41.2467 8.75162C41.0572 9.28202 40.9625 9.86925 40.9625 10.5133Z" fill="#F7D125"/>
<path id="Vector_12" d="M2.3623 10.5133C2.3623 8.90316 2.64645 7.45403 3.21474 6.16591C3.78302 4.85885 4.55968 3.75069 5.54471 2.84144C6.54869 1.93218 7.73262 1.23129 9.09651 0.738774C10.4604 0.246258 11.9379 0 13.5291 0C15.1203 0 16.5979 0.246258 17.9618 0.738774C19.3257 1.23129 20.5096 1.93218 21.5136 2.84144C22.5176 3.75069 23.3037 4.85885 23.872 6.16591C24.4403 7.45403 24.7244 8.90316 24.7244 10.5133C24.7244 12.1235 24.4403 13.5915 23.872 14.9175C23.3037 16.2435 22.5176 17.3801 21.5136 18.3273C20.5096 19.2555 19.3257 19.9753 17.9618 20.4867C16.5979 20.9982 15.1203 21.2539 13.5291 21.2539C11.9379 21.2539 10.4604 20.9982 9.09651 20.4867C7.73262 19.9753 6.54869 19.2555 5.54471 18.3273C4.55968 17.3801 3.78302 16.2435 3.21474 14.9175C2.64645 13.5915 2.3623 12.1235 2.3623 10.5133ZM9.55114 10.5133C9.55114 11.1763 9.64585 11.7825 9.83528 12.3318C10.0437 12.8812 10.3183 13.3547 10.6593 13.7525C11.0192 14.1503 11.4454 14.4629 11.9379 14.6902C12.4305 14.8986 12.9609 15.0028 13.5291 15.0028C14.0974 15.0028 14.6184 14.8986 15.0919 14.6902C15.5844 14.4629 16.0107 14.1503 16.3706 13.7525C16.7305 13.3547 17.0052 12.8812 17.1946 12.3318C17.403 11.7825 17.5072 11.1763 17.5072 10.5133C17.5072 9.86925 17.403 9.28202 17.1946 8.75162C17.0052 8.20228 16.7305 7.74765 16.3706 7.38773C16.0107 7.00887 15.5844 6.71526 15.0919 6.50689C14.6184 6.29852 14.0974 6.19433 13.5291 6.19433C12.9609 6.19433 12.4305 6.29852 11.9379 6.50689C11.4454 6.71526 11.0192 7.00887 10.6593 7.38773C10.3183 7.74765 10.0437 8.20228 9.83528 8.75162C9.64585 9.28202 9.55114 9.86925 9.55114 10.5133Z" fill="#F7D125"/>
</g>
</g>
</svg>
