<svg width="112" height="59" viewBox="0 0 112 59" fill="none" xmlns="http://www.w3.org/2000/svg">
<g id="O que fazer">
<path id="Rectangle 6" d="M0 24.5833H111.854V59H0V24.5833Z" fill="black"/>
<g id="O QUE N&#195;&#131;O FAZER">
<path id="Vector" d="M86.9971 30.9156H97.0038C98.1412 30.9156 99.2677 31.0359 100.383 31.2765C101.521 31.4952 102.527 31.8999 103.402 32.4904C104.298 33.0591 105.02 33.8356 105.567 34.8199C106.114 35.7823 106.387 36.9962 106.387 38.4617C106.387 39.8834 106.037 41.1411 105.337 42.2347C104.637 43.3065 103.631 44.1376 102.319 44.7282L108.225 54.1444H99.2349L94.7728 45.8437H94.5432V54.1444H86.9971V30.9156ZM94.4775 40.7255H96.0196C96.282 40.7255 96.5664 40.7036 96.8726 40.6599C97.2007 40.6161 97.496 40.5286 97.7584 40.3974C98.0428 40.2443 98.2725 40.0474 98.4474 39.8068C98.6443 39.5444 98.7427 39.2053 98.7427 38.7898C98.7427 38.3742 98.6662 38.0461 98.5131 37.8055C98.3599 37.5649 98.1631 37.3899 97.9225 37.2806C97.6819 37.1493 97.4194 37.0728 97.1351 37.0509C96.8507 37.0071 96.5883 36.9853 96.3477 36.9853H94.4775V40.7255Z" fill="white"/>
<path id="Vector_2" d="M67.228 30.9156H83.206V37.4118H74.5773V39.4131H82.6811V45.4828H74.5773V47.6482H83.7638V54.1444H67.228V30.9156Z" fill="white"/>
<path id="Vector_3" d="M44.4629 47.6154L53.1573 37.379H44.8238V30.9156H63.3609V36.5587L54.1088 47.4842H63.6234V54.1444H44.4629V47.6154Z" fill="white"/>
<path id="Vector_4" d="M26.1762 30.9156H34.4769L43.5322 54.1444H35.0346L33.8207 50.7323H26.4387L25.2904 54.1444H17.0225L26.1762 30.9156ZM30.2117 39.0194L28.3088 44.761H32.0818L30.2117 39.0194Z" fill="white"/>
<path id="Vector_5" d="M10.0556 39.9053H17.1424V46.2702H10.0885V54.1444H2.41113V30.9156H18.0939V37.4446H10.0556V39.9053Z" fill="white"/>
<path id="Vector_6" d="M84.9053 0.593689H99.3616V6.4712H91.5546V8.28195H98.8866V13.7736H91.5546V15.7327H99.8662V21.6102H84.9053V0.593689Z" fill="#F7D125"/>
<path id="Vector_7" d="M71.3278 22.2039C69.6853 22.2039 68.2505 21.9764 67.0236 21.5212C65.8164 21.066 64.8071 20.4427 63.9957 19.6511C63.1844 18.8595 62.5808 17.9294 62.185 16.8607C61.7892 15.7723 61.5913 14.6047 61.5913 13.358V0.593689H68.6562V12.5862C68.6562 13.5955 68.8937 14.387 69.3686 14.9609C69.8634 15.515 70.556 15.7921 71.4465 15.7921C72.3371 15.7921 73.0198 15.515 73.4948 14.9609C73.9895 14.387 74.2369 13.5955 74.2369 12.5862V0.593689H81.2721V13.358C81.2721 14.6047 81.0544 15.7723 80.619 16.8607C80.2034 17.9294 79.5801 18.8595 78.7489 19.6511C77.9177 20.4427 76.8788 21.066 75.632 21.5212C74.4051 21.9764 72.9703 22.2039 71.3278 22.2039Z" fill="#F7D125"/>
<path id="Vector_8" d="M56.2399 16.2671L59.5646 16.0593V21.6102H46.5628C44.9005 21.6102 43.3767 21.3827 41.9914 20.9275C40.6061 20.4526 39.4187 19.7599 38.4293 18.8496C37.4398 17.9393 36.668 16.8212 36.1139 15.4953C35.5598 14.1496 35.2827 12.606 35.2827 10.8645C35.2827 9.26153 35.5796 7.7971 36.1732 6.4712C36.7669 5.12551 37.5783 3.97771 38.6074 3.02781C39.6562 2.05812 40.8931 1.31601 42.3179 0.801479C43.7428 0.267159 45.2864 0 46.9487 0C48.611 0 50.1447 0.267159 51.5498 0.801479C52.9548 1.31601 54.162 2.03833 55.1713 2.96844C56.2003 3.89855 57.0018 5.01666 57.5757 6.32278C58.1496 7.62889 58.4366 9.05374 58.4366 10.5973C58.4366 11.191 58.3673 11.7748 58.2288 12.3487C58.11 12.9226 57.9418 13.4569 57.7241 13.9517C57.5262 14.4266 57.2888 14.862 57.0117 15.2578C56.7544 15.6338 56.4972 15.9306 56.2399 16.1483V16.2671ZM42.7929 10.9832C42.7929 11.6759 42.8918 12.3091 43.0897 12.883C43.3074 13.4569 43.5943 13.9517 43.9506 14.3673C44.3266 14.7828 44.7718 15.1094 45.2864 15.3468C45.8009 15.5645 46.355 15.6734 46.9487 15.6734C47.5424 15.6734 48.0866 15.5645 48.5813 15.3468C49.0959 15.1094 49.5411 14.7828 49.9171 14.3673C50.2931 13.9517 50.5801 13.4569 50.778 12.883C50.9957 12.3091 51.1045 11.6759 51.1045 10.9832C51.1045 10.3104 50.9957 9.69691 50.778 9.1428C50.5801 8.5689 50.2931 8.09395 49.9171 7.71795C49.5411 7.32215 49.0959 7.01541 48.5813 6.79773C48.0866 6.58004 47.5424 6.4712 46.9487 6.4712C46.355 6.4712 45.8009 6.58004 45.2864 6.79773C44.7718 7.01541 44.3266 7.32215 43.9506 7.71795C43.5943 8.09395 43.3074 8.5689 43.0897 9.1428C42.8918 9.69691 42.7929 10.3104 42.7929 10.9832Z" fill="#F7D125"/>
<path id="Vector_9" d="M2.46826 10.9832C2.46826 9.30111 2.76511 7.78721 3.35879 6.44152C3.95248 5.07603 4.76386 3.91834 5.79291 2.96844C6.84176 2.01854 8.07861 1.28632 9.50347 0.771795C10.9283 0.257265 12.4719 0 14.1342 0C15.7966 0 17.3401 0.257265 18.765 0.771795C20.1898 1.28632 21.4267 2.01854 22.4755 2.96844C23.5244 3.91834 24.3457 5.07603 24.9394 6.44152C25.533 7.78721 25.8299 9.30111 25.8299 10.9832C25.8299 12.6653 25.533 14.199 24.9394 15.5843C24.3457 16.9696 23.5244 18.157 22.4755 19.1464C21.4267 20.1161 20.1898 20.8681 18.765 21.4025C17.3401 21.9368 15.7966 22.2039 14.1342 22.2039C12.4719 22.2039 10.9283 21.9368 9.50347 21.4025C8.07861 20.8681 6.84176 20.1161 5.79291 19.1464C4.76386 18.157 3.95248 16.9696 3.35879 15.5843C2.76511 14.199 2.46826 12.6653 2.46826 10.9832ZM9.97842 10.9832C9.97842 11.6759 10.0774 12.3091 10.2753 12.883C10.4929 13.4569 10.7799 13.9517 11.1361 14.3673C11.5121 14.7828 11.9574 15.1094 12.4719 15.3468C12.9864 15.5645 13.5405 15.6734 14.1342 15.6734C14.7279 15.6734 15.2721 15.5645 15.7669 15.3468C16.2814 15.1094 16.7267 14.7828 17.1027 14.3673C17.4787 13.9517 17.7656 13.4569 17.9635 12.883C18.1812 12.3091 18.29 11.6759 18.29 10.9832C18.29 10.3104 18.1812 9.69691 17.9635 9.1428C17.7656 8.5689 17.4787 8.09395 17.1027 7.71795C16.7267 7.32215 16.2814 7.01541 15.7669 6.79773C15.2721 6.58004 14.7279 6.4712 14.1342 6.4712C13.5405 6.4712 12.9864 6.58004 12.4719 6.79773C11.9574 7.01541 11.5121 7.32215 11.1361 7.71795C10.7799 8.09395 10.4929 8.5689 10.2753 9.1428C10.0774 9.69691 9.97842 10.3104 9.97842 10.9832Z" fill="#F7D125"/>
</g>
</g>
</svg>
