<svg width="286" height="264" viewBox="0 0 286 264" fill="none" xmlns="http://www.w3.org/2000/svg">
<rect x="19.7241" width="247.784" height="85.0603" fill="black"/>
<rect x="9.86206" y="182.448" width="267.509" height="81.3621" fill="#0082C9"/>
<rect y="89.9914" width="286" height="85.0603" fill="black"/>
<path d="M242.018 161.837C239.756 161.837 237.52 161.626 235.311 161.205C233.155 160.837 231.051 160.285 229 159.549C227.001 158.76 225.107 157.865 223.319 156.866C221.531 155.814 219.926 154.657 218.506 153.395L229.946 140.929C231.261 142.349 232.997 143.611 235.154 144.716C237.363 145.821 239.624 146.373 241.939 146.373C242.991 146.373 243.937 146.189 244.779 145.821C245.673 145.452 246.12 144.769 246.12 143.769C246.12 143.243 245.962 142.796 245.647 142.428C245.384 142.06 244.884 141.692 244.148 141.323C243.411 140.903 242.386 140.456 241.071 139.982C239.808 139.509 238.204 138.957 236.258 138.325C234.365 137.694 232.55 136.958 230.814 136.116C229.078 135.222 227.527 134.144 226.159 132.882C224.844 131.619 223.792 130.12 223.003 128.384C222.214 126.596 221.82 124.466 221.82 121.994C221.82 118.522 222.53 115.577 223.95 113.157C225.37 110.738 227.185 108.765 229.394 107.24C231.656 105.662 234.18 104.531 236.968 103.848C239.756 103.164 242.517 102.822 245.252 102.822C248.934 102.822 252.669 103.532 256.456 104.952C260.295 106.372 263.661 108.424 266.554 111.106L254.878 123.019C253.615 121.442 252.064 120.258 250.223 119.469C248.382 118.628 246.725 118.207 245.252 118.207C243.885 118.207 242.78 118.417 241.939 118.838C241.097 119.206 240.676 119.837 240.676 120.731C240.676 121.573 241.097 122.204 241.939 122.625C242.833 123.046 244.253 123.572 246.199 124.203C248.198 124.834 250.302 125.57 252.511 126.412C254.72 127.254 256.745 128.358 258.586 129.726C260.479 131.041 262.031 132.671 263.241 134.617C264.45 136.563 265.055 138.983 265.055 141.876C265.055 145.242 264.372 148.187 263.004 150.712C261.689 153.184 259.927 155.262 257.718 156.945C255.561 158.576 253.116 159.785 250.381 160.574C247.645 161.416 244.858 161.837 242.018 161.837Z" fill="#FFD200"/>
<path d="M178.004 104.4H197.964L219.74 160.259H199.306L196.386 152.053H178.635L175.873 160.259H155.991L178.004 104.4ZM187.708 123.887L183.132 137.694H192.205L187.708 123.887Z" fill="#FFD200"/>
<path d="M132.071 161.837C129.809 161.837 127.574 161.626 125.365 161.205C123.208 160.837 121.104 160.285 119.053 159.549C117.054 158.76 115.161 157.865 113.373 156.866C111.584 155.814 109.98 154.657 108.56 153.395L120 140.929C121.315 142.349 123.05 143.611 125.207 144.716C127.416 145.821 129.678 146.373 131.992 146.373C133.044 146.373 133.991 146.189 134.832 145.821C135.727 145.452 136.174 144.769 136.174 143.769C136.174 143.243 136.016 142.796 135.7 142.428C135.437 142.06 134.938 141.692 134.201 141.323C133.465 140.903 132.439 140.456 131.124 139.982C129.862 139.509 128.258 138.957 126.312 138.325C124.418 137.694 122.603 136.958 120.868 136.116C119.132 135.222 117.58 134.144 116.213 132.882C114.898 131.619 113.846 130.12 113.057 128.384C112.268 126.596 111.873 124.466 111.873 121.994C111.873 118.522 112.584 115.577 114.004 113.157C115.424 110.738 117.238 108.765 119.448 107.24C121.709 105.662 124.234 104.531 127.022 103.848C129.809 103.164 132.571 102.822 135.306 102.822C138.988 102.822 142.722 103.532 146.509 104.952C150.349 106.372 153.715 108.424 156.608 111.106L144.931 123.019C143.669 121.442 142.117 120.258 140.276 119.469C138.435 118.628 136.778 118.207 135.306 118.207C133.938 118.207 132.834 118.417 131.992 118.838C131.151 119.206 130.73 119.837 130.73 120.731C130.73 121.573 131.151 122.204 131.992 122.625C132.886 123.046 134.306 123.572 136.253 124.203C138.251 124.834 140.355 125.57 142.564 126.412C144.773 127.254 146.798 128.358 148.639 129.726C150.533 131.041 152.084 132.671 153.294 134.617C154.504 136.563 155.109 138.983 155.109 141.876C155.109 145.242 154.425 148.187 153.057 150.712C151.743 153.184 149.981 155.262 147.771 156.945C145.615 158.576 143.169 159.785 140.434 160.574C137.699 161.416 134.911 161.837 132.071 161.837Z" fill="#FFD200"/>
<path d="M83.3769 161.837C81.1152 161.837 78.8798 161.626 76.6707 161.205C74.5142 160.837 72.4103 160.285 70.359 159.549C68.3603 158.76 66.4667 157.865 64.6784 156.866C62.8901 155.814 61.2859 154.657 59.8657 153.395L71.3057 140.929C72.6207 142.349 74.3564 143.611 76.5129 144.716C78.722 145.821 80.9837 146.373 83.298 146.373C84.35 146.373 85.2967 146.189 86.1383 145.821C87.0324 145.452 87.4795 144.769 87.4795 143.769C87.4795 143.243 87.3217 142.796 87.0061 142.428C86.7431 142.06 86.2435 141.692 85.5071 141.323C84.7707 140.903 83.7451 140.456 82.4301 139.982C81.1678 139.509 79.5636 138.957 77.6174 138.325C75.7239 137.694 73.9093 136.958 72.1736 136.116C70.4379 135.222 68.8862 134.144 67.5187 132.882C66.2037 131.619 65.1518 130.12 64.3628 128.384C63.5739 126.596 63.1794 124.466 63.1794 121.994C63.1794 118.522 63.8894 115.577 65.3096 113.157C66.7297 110.738 68.5443 108.765 70.7534 107.24C73.0151 105.662 75.5398 104.531 78.3275 103.848C81.1152 103.164 83.8766 102.822 86.6117 102.822C90.2935 102.822 94.0279 103.532 97.815 104.952C101.655 106.372 105.021 108.424 107.914 111.106L96.237 123.019C94.9747 121.442 93.4231 120.258 91.5821 119.469C89.7412 118.628 88.0844 118.207 86.6117 118.207C85.2441 118.207 84.1396 118.417 83.298 118.838C82.4564 119.206 82.0357 119.837 82.0357 120.731C82.0357 121.573 82.4564 122.204 83.298 122.625C84.1922 123.046 85.6123 123.572 87.5584 124.203C89.5571 124.834 91.661 125.57 93.8701 126.412C96.0792 127.254 98.1043 128.358 99.9452 129.726C101.839 131.041 103.39 132.671 104.6 134.617C105.81 136.563 106.415 138.983 106.415 141.876C106.415 145.242 105.731 148.187 104.363 150.712C103.048 153.184 101.286 155.262 99.0773 156.945C96.9208 158.576 94.475 159.785 91.7399 160.574C89.0049 161.416 86.2172 161.837 83.3769 161.837Z" fill="#FFD200"/>
<path d="M17.5349 104.4H55.9575V120.021H35.2077V124.834H54.6952V139.43H35.2077V144.637H57.2988V160.259H17.5349V104.4Z" fill="#FFD200"/>
<path d="M210.672 13.1757H230.633L252.408 69.0345H231.974L229.055 60.8292H211.303L208.542 69.0345H188.66L210.672 13.1757ZM220.376 32.6632L215.8 46.4701H224.873L220.376 32.6632Z" fill="#FFD200"/>
<path d="M163.435 70.4546C159.017 70.4546 154.914 69.7709 151.127 68.4033C147.392 67.0358 144.131 65.0897 141.344 62.565C138.609 59.9877 136.452 56.8844 134.874 53.2552C133.296 49.6259 132.507 45.5759 132.507 41.1051C132.507 36.6343 133.296 32.5843 134.874 28.9551C136.452 25.3258 138.609 22.2225 141.344 19.6453C144.079 17.068 147.287 15.0956 150.969 13.728C154.651 12.3079 158.596 11.5978 162.804 11.5978C167.169 11.5978 171.298 12.3079 175.19 13.728C179.135 15.1482 182.344 17.0943 184.816 19.5664L173.849 32.7421C172.692 31.3745 171.324 30.2963 169.746 29.5073C168.169 28.6658 166.222 28.245 163.908 28.245C162.383 28.245 160.884 28.5606 159.411 29.1917C157.991 29.7703 156.729 30.6382 155.624 31.7953C154.519 32.8999 153.625 34.2411 152.942 35.8191C152.258 37.397 151.916 39.159 151.916 41.1051C151.916 44.9974 152.915 48.1795 154.914 50.6516C156.965 53.0711 160.226 54.2808 164.697 54.2808C165.486 54.2808 166.301 54.2282 167.143 54.1231C167.984 53.9653 168.642 53.7549 169.115 53.4919V49.2315H160.121V34.4778H185.763V65.0108C184.448 65.7997 182.922 66.5361 181.186 67.2199C179.503 67.8511 177.689 68.4033 175.743 68.8767C173.849 69.3501 171.85 69.7183 169.746 69.9813C167.643 70.2968 165.539 70.4546 163.435 70.4546Z" fill="#FFD200"/>
<path d="M87.4939 13.1757H125.917V28.7972H105.167V33.6099H124.654V48.2058H105.167V53.4129H127.258V69.0345H87.4939V13.1757Z" fill="#FFD200"/>
<path d="M52.2593 51.0461V69.0345H33.5608V13.1757H57.5453C60.3856 13.1757 63.1733 13.4913 65.9084 14.1225C68.6435 14.701 71.0893 15.7267 73.2458 17.1994C75.4023 18.6196 77.138 20.5394 78.4529 22.9589C79.7679 25.3258 80.4253 28.3238 80.4253 31.9531C80.4253 35.4245 79.7679 38.37 78.4529 40.7895C77.1906 43.209 75.4812 45.1814 73.3247 46.7067C71.2207 48.2321 68.775 49.3366 65.9873 50.0204C63.2522 50.7042 60.4382 51.0461 57.5453 51.0461H52.2593ZM52.2593 27.7716V36.7658H56.2041C57.6242 36.7658 58.9129 36.4239 60.07 35.7401C61.2798 35.0037 61.8847 33.794 61.8847 32.1109C61.8847 31.2167 61.7269 30.5066 61.4113 29.9807C61.0957 29.4021 60.6486 28.955 60.07 28.6394C59.5441 28.3238 58.9392 28.1135 58.2554 28.0083C57.5716 27.8505 56.8879 27.7716 56.2041 27.7716H52.2593Z" fill="#FFD200"/>
<path d="M235.636 251.729C233.516 251.729 231.42 251.532 229.349 251.138C227.328 250.792 225.355 250.275 223.432 249.584C221.558 248.845 219.783 248.006 218.107 247.069C216.43 246.083 214.926 244.998 213.595 243.815L224.32 232.128C225.552 233.46 227.18 234.643 229.201 235.679C231.272 236.714 233.393 237.232 235.562 237.232C236.549 237.232 237.436 237.059 238.225 236.714C239.064 236.369 239.483 235.728 239.483 234.791C239.483 234.298 239.335 233.879 239.039 233.534C238.792 233.189 238.324 232.843 237.634 232.498C236.943 232.104 235.982 231.685 234.749 231.241C233.565 230.797 232.061 230.279 230.237 229.688C228.462 229.096 226.761 228.406 225.133 227.617C223.506 226.778 222.051 225.767 220.769 224.584C219.537 223.401 218.55 221.995 217.811 220.368C217.071 218.691 216.701 216.694 216.701 214.377C216.701 211.122 217.367 208.361 218.698 206.093C220.03 203.824 221.731 201.975 223.802 200.545C225.922 199.066 228.289 198.006 230.903 197.365C233.516 196.724 236.105 196.403 238.669 196.403C242.121 196.403 245.622 197.069 249.172 198.4C252.772 199.732 255.928 201.655 258.64 204.169L247.693 215.338C246.509 213.859 245.055 212.749 243.329 212.01C241.603 211.221 240.05 210.826 238.669 210.826C237.387 210.826 236.351 211.024 235.562 211.418C234.774 211.763 234.379 212.355 234.379 213.193C234.379 213.982 234.774 214.574 235.562 214.968C236.401 215.363 237.732 215.856 239.557 216.448C241.43 217.039 243.403 217.73 245.474 218.519C247.545 219.308 249.443 220.343 251.169 221.625C252.944 222.858 254.399 224.387 255.533 226.211C256.667 228.036 257.234 230.304 257.234 233.016C257.234 236.172 256.593 238.933 255.311 241.3C254.079 243.618 252.427 245.566 250.356 247.143C248.334 248.672 246.041 249.806 243.477 250.546C240.913 251.335 238.299 251.729 235.636 251.729Z" fill="white"/>
<path d="M175.623 197.882H194.336L214.751 250.25H195.594L192.857 242.558H176.215L173.626 250.25H154.987L175.623 197.882ZM184.721 216.152L180.431 229.096H188.937L184.721 216.152Z" fill="white"/>
<path d="M108.051 224.066C108.051 219.875 108.79 216.078 110.27 212.676C111.749 209.273 113.771 206.364 116.335 203.948C118.899 201.531 121.907 199.682 125.358 198.4C128.86 197.069 132.582 196.403 136.527 196.403C140.571 196.403 144.392 197.069 147.992 198.4C151.592 199.682 154.6 201.433 157.016 203.652L146.217 216.67C145.231 215.388 143.998 214.426 142.518 213.785C141.039 213.095 139.387 212.749 137.563 212.749C136.083 212.749 134.703 213.021 133.421 213.563C132.139 214.056 131.005 214.796 130.018 215.782C129.081 216.768 128.342 217.976 127.799 219.406C127.257 220.787 126.986 222.34 126.986 224.066C126.986 225.792 127.257 227.345 127.799 228.726C128.391 230.057 129.155 231.216 130.092 232.202C131.078 233.189 132.213 233.953 133.495 234.495C134.777 234.988 136.133 235.235 137.563 235.235C139.585 235.235 141.31 234.816 142.74 233.978C144.22 233.139 145.378 232.153 146.217 231.019L157.016 243.963C154.649 246.33 151.74 248.228 148.288 249.658C144.836 251.039 140.916 251.729 136.527 251.729C132.582 251.729 128.86 251.064 125.358 249.732C121.907 248.401 118.899 246.527 116.335 244.111C113.771 241.645 111.749 238.736 110.27 235.383C108.79 231.981 108.051 228.208 108.051 224.066Z" fill="white"/>
<path d="M82.897 197.882H100.649V250.25H82.897V197.882Z" fill="white"/>
<path d="M24.6057 250.25V197.882H44.1326C48.2747 197.882 52.2195 198.302 55.9671 199.14C59.764 199.929 63.0924 201.334 65.9524 203.356C68.8618 205.328 71.1793 207.966 72.9052 211.27C74.6311 214.574 75.494 218.741 75.494 223.77C75.494 228.356 74.6557 232.326 72.9792 235.679C71.3519 239.032 69.1576 241.793 66.3962 243.963C63.6349 246.083 60.4543 247.661 56.8547 248.697C53.255 249.732 49.5074 250.25 45.6119 250.25H24.6057ZM41.5438 212.823V235.161H44.7983C48.9404 235.161 52.1209 234.273 54.3399 232.498C56.5588 230.674 57.6683 227.715 57.6683 223.622C57.6683 220.22 56.5588 217.582 54.3399 215.708C52.1209 213.785 49.1623 212.823 45.464 212.823H41.5438Z" fill="white"/>
</svg>
