<svg width="167" height="167" viewBox="0 0 167 167" fill="none" xmlns="http://www.w3.org/2000/svg">
<g clip-path="url(#clip0_5_3953)">
<mask id="mask0_5_3953" style="mask-type:luminance" maskUnits="userSpaceOnUse" x="0" y="0" width="167" height="167">
<path d="M167 0H0V167H167V0Z" fill="white"/>
</mask>
<g mask="url(#mask0_5_3953)">
<path d="M83.4983 165.777C38.1336 165.777 1.22327 128.866 1.22327 83.4983C1.22327 38.1301 38.1336 1.22324 83.4983 1.22324C128.863 1.22324 165.777 38.1336 165.777 83.4983C165.777 128.863 128.866 165.777 83.4983 165.777Z" fill="#FFD300"/>
<path d="M83.4983 167C37.4591 167 0 129.541 0 83.4983C0 37.4556 37.4591 0 83.4983 0C129.537 0 167 37.4591 167 83.4983C167 129.537 129.541 167 83.4983 167ZM83.4983 2.44648C38.7941 2.44648 2.44648 38.7941 2.44648 83.4983C2.44648 128.202 38.7941 164.554 83.4983 164.554C128.202 164.554 164.554 128.206 164.554 83.4983C164.554 38.7906 128.192 2.44648 83.4983 2.44648Z" fill="white"/>
<path d="M29.3228 63.2589H41.7019C45.7037 63.2589 48.4717 64.3074 50.2296 66.1003C51.7639 67.5962 52.5503 69.6162 52.5503 72.199V72.2724C52.5503 76.2741 50.4184 78.9303 47.1611 80.3108L53.4101 89.4397H45.0221L39.7482 81.5096H36.5678V89.4397H29.3228V63.2589ZM41.3664 75.8408C43.8339 75.8408 45.2563 74.6455 45.2563 72.7372V72.6639C45.2563 70.6053 43.7605 69.5603 41.328 69.5603H36.5783V75.8513L41.3664 75.8408Z" fill="white"/>
<path d="M55.7272 90.6734H44.3861L39.1087 82.7433H37.8085V90.6734H28.103V62.0461H41.7019C45.854 62.0461 49.0169 63.1261 51.1034 65.2545C52.8684 66.9775 53.7736 69.3227 53.7736 72.2095V72.2829C53.7736 76.0155 52.0785 78.9897 48.9645 80.7897L55.7272 90.6734ZM45.6897 88.2269H51.0894L45.3088 79.7796L46.6858 79.1959C48.8037 78.2977 51.3271 76.3685 51.3271 72.2829V72.2095C51.3271 69.9762 50.6875 68.2672 49.3769 66.988C47.7482 65.3244 45.1829 64.4926 41.688 64.4926H30.5495V88.2269H35.3551V80.2969H40.4123L45.6897 88.2269ZM41.3664 77.043H35.3551V68.3056H41.328C44.5049 68.3056 46.4796 69.9622 46.4796 72.6324V72.7058C46.4796 75.334 44.4735 77.0326 41.3664 77.0326M37.8016 74.5861H41.3664C42.5827 74.5861 44.0331 74.2611 44.0331 72.7058V72.6324C44.0331 72.1186 44.0331 70.7521 41.328 70.7521H37.8016V74.5861Z" fill="white"/>
<path d="M53.5883 76.4349V76.358C53.5883 68.8404 59.6451 62.7451 67.7255 62.7451C75.8058 62.7451 81.7822 68.767 81.7822 76.2847V76.358C81.7822 83.8757 75.722 89.9884 67.6451 89.9884C59.5682 89.9884 53.5848 83.9701 53.5848 76.4524M74.3764 76.4524V76.3755C74.3764 72.601 71.6468 69.3087 67.6451 69.3087C63.6434 69.3087 61.0256 72.5241 61.0256 76.2986V76.372C61.0256 80.1501 63.7552 83.4423 67.722 83.4423C71.6888 83.4423 74.3624 80.2235 74.3624 76.4524" fill="white"/>
<path d="M67.6486 91.1942C59.0789 91.1942 52.3651 84.711 52.3651 76.4349V76.358C52.3651 68.04 59.1104 61.5219 67.7255 61.5219C76.3406 61.5219 83.009 68.0051 83.009 76.2847V76.358C83.009 84.6796 76.2602 91.1942 67.6486 91.1942ZM67.7255 63.9684C60.4839 63.9684 54.8116 69.4135 54.8116 76.358V76.4349C54.8116 83.4528 60.3301 88.7477 67.6486 88.7477C74.8902 88.7477 80.5625 83.306 80.5625 76.358V76.2847C80.5625 69.2633 75.044 63.9684 67.7255 63.9684ZM67.7255 84.6516C63.2834 84.6516 59.8059 81.0098 59.8059 76.358V76.2847C59.8059 71.6014 63.1785 68.068 67.6486 68.068C72.1187 68.068 75.6031 71.7097 75.6031 76.358V76.4349C75.6031 81.1182 72.2165 84.6516 67.7255 84.6516ZM67.6486 70.5145C64.573 70.5145 62.2524 72.9959 62.2524 76.2847V76.358C62.2524 79.6922 64.6045 82.2051 67.7255 82.2051C70.4236 82.2051 73.1567 80.2235 73.1567 76.4349V76.358C73.1567 73.0273 70.7871 70.5145 67.6486 70.5145Z" fill="white"/>
<path d="M83.1522 63.2589H93.2527C102.602 63.2589 108.022 68.6446 108.022 76.1903V76.2672C108.022 83.8233 102.525 89.4327 93.1024 89.4327H83.1522V63.2589ZM93.3645 83.0055C97.7018 83.0055 100.582 80.6114 100.582 76.386V76.3126C100.582 72.1186 97.7018 69.6931 93.3645 69.6931H90.4078V83.0055H93.3645Z" fill="white"/>
<path d="M93.1025 90.6734H81.9186V62.0461H93.2423C102.958 62.0461 109.235 67.6066 109.235 76.2078V76.2846C109.235 84.8892 102.749 90.6734 93.092 90.6734M84.3546 88.2269H93.092C101.413 88.2269 106.789 83.5367 106.789 76.2846V76.2078C106.789 68.9837 101.599 64.4926 93.2423 64.4926H84.3651L84.3546 88.2269ZM93.3646 84.2287H89.1706V68.4804H93.3646C98.4917 68.4804 101.805 71.5594 101.805 76.3231V76.3965C101.805 81.1601 98.4917 84.2392 93.3646 84.2392M91.6171 81.7927H93.3646C97.1741 81.7927 99.3585 79.825 99.3585 76.3965V76.3231C99.3585 72.9435 97.1182 70.9269 93.3646 70.9269H91.6171V81.7927Z" fill="white"/>
<path d="M109.476 76.4349V76.358C109.476 68.8404 115.533 62.7451 123.613 62.7451C131.694 62.7451 137.674 68.767 137.674 76.2847V76.358C137.674 83.8757 131.617 89.9884 123.537 89.9884C115.456 89.9884 109.476 83.9701 109.476 76.4524M130.268 76.4524V76.3755C130.268 72.601 127.538 69.3087 123.537 69.3087C119.535 69.3087 116.917 72.5241 116.917 76.2986V76.372C116.917 80.1501 119.65 83.4423 123.613 83.4423C127.577 83.4423 130.254 80.2235 130.254 76.4524" fill="white"/>
<path d="M123.537 91.1942C114.967 91.1942 108.253 84.711 108.253 76.4349V76.358C108.253 68.04 114.998 61.5219 123.613 61.5219C132.229 61.5219 138.897 68.0051 138.897 76.2847V76.358C138.897 84.6796 132.152 91.1942 123.537 91.1942ZM123.613 63.9684C116.372 63.9684 110.7 69.4135 110.7 76.358V76.4349C110.7 83.4528 116.218 88.7477 123.537 88.7477C130.778 88.7477 136.45 83.306 136.45 76.358V76.2847C136.45 69.2633 130.932 63.9684 123.613 63.9684ZM123.613 84.6516C119.178 84.6516 115.683 81.0098 115.683 76.358V76.2847C115.683 71.6014 119.056 68.068 123.526 68.068C127.996 68.068 131.481 71.7097 131.481 76.358V76.4349C131.481 81.1182 128.094 84.6516 123.603 84.6516M123.526 70.5145C120.45 70.5145 118.13 72.9959 118.13 76.2847V76.358C118.13 79.6922 120.482 82.2051 123.603 82.2051C126.301 82.2051 129.034 80.2235 129.034 76.4349V76.358C129.034 73.0273 126.668 70.5145 123.526 70.5145Z" fill="white"/>
<path d="M37.7736 47.4372H42.1528C44.7355 47.4372 46.3991 48.7653 46.3991 51.0265V51.058C46.3991 53.466 44.5468 54.7347 42.006 54.7347H40.608V57.667H37.7771L37.7736 47.4372ZM41.9396 52.5154C42.9461 52.5154 43.5612 51.9911 43.5612 51.1873V51.1593C43.5612 50.2821 42.9461 49.8173 41.9256 49.8173H40.5975V52.5154H41.9396Z" fill="#FFD300"/>
<path d="M41.8278 58.8762H36.5504V46.214H42.1424C45.4661 46.214 47.612 48.1047 47.612 51.0265C47.612 54.0357 45.4067 55.9579 41.9956 55.9579H41.8173L41.8278 58.8762ZM38.9969 56.4298H39.3813V48.6604H38.9969V56.4298ZM42.8414 48.7024C43.3125 48.815 43.7415 49.06 44.0778 49.4086C44.4141 49.7572 44.6435 50.1948 44.7391 50.6697C44.8347 51.1445 44.7923 51.6368 44.617 52.0883C44.4418 52.5399 44.1409 52.9318 43.75 53.2179C44.1898 53.0615 44.5665 52.766 44.8232 52.3763C45.0799 51.9865 45.2025 51.5237 45.1725 51.058C45.1725 49.3559 43.9178 48.8352 42.8414 48.7024ZM41.8243 51.2921H41.9397C42.0765 51.3007 42.2133 51.2755 42.3381 51.2188C42.3381 51.2188 42.3381 51.2188 42.3381 51.1873C42.3381 51.1558 42.3381 51.1174 42.3381 51.0999C42.2111 51.0506 42.0759 51.0257 41.9397 51.0265H41.8348L41.8243 51.2921Z" fill="white"/>
<path d="M47.965 47.4372H52.795C54.3573 47.4372 55.4372 47.8461 56.1222 48.5451C56.4293 48.8578 56.6682 49.2307 56.824 49.6404C56.9798 50.05 57.0491 50.4875 57.0274 50.9252V50.9531C57.0527 51.6313 56.8637 52.3001 56.4873 52.8648C56.1109 53.4294 55.5661 53.8611 54.9304 54.0986L57.3769 57.66H54.1091L52.0506 54.5669H50.8099V57.667H47.9789L47.965 47.4372ZM52.6622 52.3301C53.6268 52.3301 54.1825 51.8653 54.1825 51.1209V51.0894C54.1825 50.2856 53.5989 49.8802 52.6482 49.8802H50.7959V52.3267L52.6622 52.3301Z" fill="#FFD300"/>
<path d="M59.6835 58.8762H53.438L52.0191 56.7443V58.8762H46.7382V46.214H52.7949C54.6228 46.214 56.0383 46.7102 56.9889 47.6888C57.4086 48.1136 57.7365 48.62 57.9523 49.1767C58.1682 49.7334 58.2673 50.3286 58.2436 50.9252C58.2614 51.5963 58.1277 52.2629 57.8524 52.8752C57.577 53.4876 57.1672 54.03 56.6534 54.4621L59.6835 58.8762ZM54.7486 56.4298H55.0422L53.0745 53.5499H53.1025C53.0116 53.5499 52.9173 53.5674 52.8229 53.5709L53.0536 53.8924L54.7486 56.4298ZM49.1846 56.4298H49.5726V48.6674H52.6481C54.5529 48.6674 55.4057 49.8872 55.4057 51.1139C55.4134 51.4463 55.3497 51.7765 55.2188 52.0822C55.088 52.3879 54.8931 52.6619 54.6473 52.8859C55.0112 52.7201 55.3164 52.4481 55.5229 52.1057C55.7293 51.7632 55.8274 51.3663 55.8041 50.9671C55.8041 50.0619 55.5 49.66 55.2694 49.4363C54.7661 48.9226 53.9413 48.6744 52.7949 48.6744H49.1846V56.4298Z" fill="white"/>
<path d="M58.4742 52.5748V52.5468C58.4742 49.6111 60.8403 47.231 63.9928 47.231C67.1453 47.231 69.4799 49.5831 69.4799 52.5154V52.5468C69.4799 55.4791 67.1173 57.8592 63.9648 57.8592C60.8124 57.8592 58.4742 55.5071 58.4742 52.5748ZM66.5931 52.5748V52.5468C66.6071 52.1916 66.5497 51.8372 66.4243 51.5046C66.2989 51.172 66.1079 50.868 65.8629 50.6105C65.6178 50.353 65.3235 50.1474 64.9975 50.0057C64.6714 49.8641 64.3203 49.7893 63.9648 49.7858C62.4166 49.7858 61.3821 51.044 61.3821 52.5154V52.5468C61.3821 54.0217 62.4305 55.3044 63.9928 55.3044C65.555 55.3044 66.5931 54.0497 66.5931 52.5748Z" fill="#FFD300"/>
<path d="M63.9579 59.0824C60.1938 59.0824 57.244 56.2235 57.244 52.5748V52.5468C57.244 48.8806 60.2078 46.0078 63.9858 46.0078C67.7639 46.0078 70.6961 48.8666 70.6961 52.5154C70.6961 56.1641 67.7359 59.0824 63.9579 59.0824ZM63.9858 48.4542C61.5778 48.4542 59.6905 50.2506 59.6905 52.5468V52.5748C59.6905 54.8885 61.5254 56.6359 63.9579 56.6359C66.3903 56.6359 68.2497 54.8395 68.2497 52.5468C68.2497 50.2017 66.4183 48.4542 63.9858 48.4542ZM63.9858 56.5276C63.4703 56.5246 62.9605 56.4185 62.4865 56.2157C62.0125 56.0128 61.5838 55.7173 61.2257 55.3464C60.8675 54.9756 60.5871 54.5369 60.4009 54.0561C60.2147 53.5753 60.1264 53.0622 60.1413 52.5468C60.1413 50.2996 61.8119 48.5626 63.9474 48.5626C64.4628 48.567 64.9722 48.6742 65.4458 48.8777C65.9194 49.0813 66.3476 49.3772 66.7055 49.7481C67.0635 50.119 67.3439 50.5576 67.5304 51.0381C67.7169 51.5187 67.8058 52.0316 67.7918 52.5468V52.5748C67.8063 53.0869 67.7182 53.5968 67.5328 54.0744C67.3474 54.5521 67.0684 54.9878 66.7122 55.3561C66.356 55.7243 65.9297 56.0177 65.4585 56.2189C64.9873 56.42 64.4807 56.525 63.9683 56.5276M63.9579 51.0265C63.0631 51.0265 62.5983 51.7849 62.5983 52.5329C62.5983 53.2808 63.0841 54.0986 63.9963 54.0986C64.9085 54.0986 65.3733 53.3192 65.3733 52.5923V52.5643C65.3851 52.371 65.358 52.1772 65.2937 51.9945C65.2294 51.8118 65.1291 51.6438 64.9988 51.5004C64.8685 51.3571 64.7108 51.2413 64.535 51.1599C64.3592 51.0785 64.1689 51.0332 63.9753 51.0265" fill="white"/>
<path d="M70.9723 52.5748V52.5468C70.9723 49.5691 73.3069 47.231 76.4769 47.231C77.9979 47.1801 79.4809 47.7127 80.6219 48.7198L78.9583 50.7224C78.2883 50.0989 77.406 49.754 76.4908 49.7578C75.016 49.7578 73.8766 50.9985 73.8766 52.5538V52.5818C73.8581 52.9537 73.9168 53.3254 74.049 53.6735C74.1811 54.0216 74.3839 54.3386 74.6446 54.6045C74.9053 54.8704 75.2181 55.0795 75.5635 55.2186C75.909 55.3577 76.2794 55.4238 76.6516 55.4127C77.2269 55.4388 77.7967 55.2915 78.2873 54.9898V53.7491H76.2707V51.6766H80.9714V56.269C79.7224 57.2985 78.1514 57.8564 76.5328 57.8452C73.3524 57.8452 70.9723 55.6573 70.9723 52.5608" fill="#FFD300"/>
<path d="M76.5398 59.0824C72.6744 59.0824 69.7561 56.2864 69.7561 52.5748V52.5468C69.7561 48.8806 72.7128 46.0077 76.4839 46.0077C78.301 45.9535 80.0706 46.5933 81.4328 47.7972L82.3415 48.58L80.7757 50.4603H82.2052V56.8596L81.7613 57.2266C80.2926 58.4389 78.4442 59.0959 76.5398 59.0824ZM76.4839 48.4542C74.0374 48.4542 72.2026 50.2017 72.2026 52.5468V52.5748C72.2026 54.8954 73.8872 56.5381 76.3231 56.6324C75.3087 56.5624 74.3608 56.1021 73.6785 55.3481C72.9962 54.5941 72.6326 53.6051 72.6639 52.5888C72.6639 50.3031 74.3485 48.5346 76.5084 48.5346C77.2885 48.5239 78.0585 48.7128 78.7452 49.0833L78.843 48.968C78.1133 48.6091 77.3073 48.4328 76.4944 48.4542M79.528 52.9068V55.6608L78.9723 56.0103C78.7286 56.1719 78.4656 56.3022 78.1895 56.3983C78.7495 56.2346 79.2811 55.9859 79.7657 55.6608V52.8963L79.528 52.9068Z" fill="white"/>
<path d="M82.9146 47.4372H87.7481C89.3103 47.4372 90.3903 47.8461 91.0753 48.5451C91.3823 48.8578 91.6213 49.2307 91.7771 49.6404C91.9329 50.05 92.0021 50.4875 91.9805 50.9252V50.9531C92.0058 51.6313 91.8168 52.3001 91.4404 52.8648C91.0639 53.4294 90.5192 53.8611 89.8835 54.0986L92.33 57.66H89.0622L87.0037 54.5669H85.7629V57.667H82.9285L82.9146 47.4372ZM87.6153 52.3301C88.5799 52.3301 89.1356 51.8653 89.1356 51.1209V51.0894C89.1356 50.2856 88.5519 49.8802 87.6013 49.8802H85.749V52.3267L87.6153 52.3301Z" fill="#FFD300"/>
<path d="M94.6368 58.8762H88.3913L86.9723 56.7408V58.8762H81.6914V46.214H87.7482C89.5761 46.214 90.9915 46.7102 91.9421 47.6923C92.3621 48.1162 92.6902 48.6219 92.9061 49.1781C93.1219 49.7343 93.2209 50.329 93.1968 50.9252C93.2146 51.5963 93.0809 52.2629 92.8056 52.8752C92.5303 53.4876 92.1205 54.03 91.6066 54.4621L94.6368 58.8762ZM89.7019 56.4298H89.9954L88.0278 53.5499H88.0557C87.9649 53.5499 87.8705 53.5674 87.7761 53.5709L88.0068 53.8924L89.7019 56.4298ZM84.1379 56.4298H84.5258V48.6674H87.6014C89.5061 48.6674 90.3589 49.8872 90.3589 51.1139C90.3662 51.4468 90.3023 51.7774 90.1715 52.0836C90.0407 52.3897 89.8461 52.6645 89.6005 52.8893C89.9644 52.7226 90.2695 52.4499 90.4759 52.1069C90.6823 51.764 90.7804 51.3667 90.7573 50.9671C90.7573 50.0619 90.4533 49.66 90.2226 49.4363C89.7193 48.9226 88.8945 48.6744 87.7482 48.6744H84.1379V56.4298Z" fill="white"/>
<path d="M97.1357 47.3638H99.8652L104.216 57.667H101.179L100.435 55.8426H96.4926L95.7621 57.667H92.7844L97.1357 47.3638ZM99.6171 53.6268L98.4777 50.719L97.3279 53.6268H99.6171Z" fill="#FFD300"/>
<path d="M106.062 58.8797H100.358L99.6065 57.0519H97.3138L96.5869 58.8797H90.9425L96.3248 46.1336H100.676L106.062 58.8797ZM102.001 56.4332H102.371L99.0543 48.5801H98.9565L101.403 54.843H101.354L102.001 56.4332ZM94.6332 56.4332H94.9373L95.5698 54.85H95.5244L98.0093 48.5801H97.9464L94.6332 56.4332Z" fill="white"/>
<path d="M105.576 47.4372H108.568L111.007 51.3935L113.443 47.4372H116.435V57.6565H113.618V51.7884L111.007 55.7867H110.948L108.351 51.8164V57.6565H105.576V47.4372Z" fill="#FFD300"/>
<path d="M117.658 58.8762H112.395V55.895L111.668 57.0099H110.287L109.588 55.9195V58.8762H104.353V46.214H109.246L110.993 49.0624L112.741 46.214H117.634L117.658 58.8762ZM114.841 56.4298H115.212V48.6604H114.841V56.4298ZM106.803 56.4298H107.131V48.6604H106.803V56.4298ZM107.75 48.6604L110.137 52.3092L107.89 48.6604H107.75ZM114.132 48.6604L112.908 50.6421L114.205 48.6604H114.132Z" fill="white"/>
<path d="M122.146 47.3638H124.875L129.226 57.667H126.189L125.445 55.8426H121.506L120.776 57.667H117.798L122.146 47.3638ZM124.627 53.6268L123.488 50.719L122.334 53.6268H124.627Z" fill="#FFD300"/>
<path d="M131.061 58.8797H125.368L124.624 57.0519H122.324L121.597 58.8797H115.953L121.335 46.1336H125.686L131.061 58.8797ZM127 56.4332H127.371L124.071 48.5801H123.973L126.42 54.843H126.368L127 56.4332ZM119.633 56.4332H119.937L120.569 54.85H120.524L123.023 48.5801H122.96L119.633 56.4332Z" fill="white"/>
<path d="M76.4838 93.8364H69.438V119.126H76.4838V93.8364Z" fill="white"/>
<path d="M77.7036 120.346H68.2147V92.6166H77.7036V120.346ZM70.6612 117.899H75.2571V95.0631H70.6612V117.899Z" fill="white"/>
<path d="M80.0557 93.8364H89.8206C98.8516 93.8364 104.091 99.0369 104.091 106.334V106.408C104.091 113.705 98.7782 119.122 89.6773 119.122H80.0661L80.0557 93.8364ZM89.9185 112.908C94.1124 112.908 96.9084 110.598 96.9084 106.516V106.443C96.9084 102.399 94.1124 100.05 89.9185 100.05H87.0631V112.908H89.9185Z" fill="white"/>
<path d="M89.6669 120.346H78.8325V92.6166H89.8207C99.2326 92.6166 105.314 98.0024 105.314 106.338V106.411C105.314 114.747 99.0229 120.349 89.6774 120.349M81.2895 117.903H89.6774C97.6879 117.903 102.867 113.394 102.867 106.411V106.338C102.857 99.3794 97.8591 95.0631 89.8207 95.0631H81.279L81.2895 117.903ZM89.929 114.135H85.8399V98.8272H89.9186C94.8954 98.8272 98.1143 101.815 98.1143 106.443V106.516C98.1143 111.143 94.8954 114.132 89.9186 114.132M88.2864 111.685H89.9186C93.5708 111.685 95.6678 109.801 95.6678 106.516V106.443C95.6678 103.157 93.5708 101.274 89.9186 101.274H88.2864V111.685Z" fill="white"/>
<path d="M112.629 93.6651H119.385L130.149 119.133H122.635L120.793 114.617H111.039L109.232 119.133H101.864L112.629 93.6651ZM118.769 109.165L115.952 101.976L113.097 109.165H118.769Z" fill="white"/>
<path d="M131.994 120.346H121.814L119.972 115.83H111.867L110.06 120.346H100.019L111.818 92.4314H120.206L131.994 120.346ZM123.456 117.899H128.304L118.574 94.8779H113.44L103.71 117.899H108.403L110.21 113.384H121.625L123.456 117.899ZM120.576 110.378H111.297L115.959 98.6315L120.576 110.378ZM114.914 107.932H116.99L115.959 105.3L114.914 107.932Z" fill="white"/>
<path d="M45.6896 92.732C41.4048 92.732 37.9308 96.4087 37.9308 100.938C37.9178 103.093 38.7308 105.17 40.2025 106.743L45.2982 112.133L52.2881 119.521L59.2781 112.133L64.3772 106.743C65.8503 105.171 66.6646 103.093 66.6525 100.938C66.6525 96.3947 63.175 92.732 58.8901 92.732C56.0942 92.732 52.9732 95.2309 52.2986 98.3239C51.4389 95.2379 48.4856 92.732 45.7036 92.732" fill="white"/>
<path d="M52.2882 121.303L39.3149 107.582C37.6267 105.785 36.6934 103.407 36.7077 100.942C36.7077 95.7411 40.7374 91.5052 45.6897 91.5052C48.1747 91.5052 50.698 93.0814 52.2498 95.3881C53.7561 93.1234 56.3494 91.5052 58.8902 91.5052C63.8461 91.5052 67.8758 95.7341 67.8758 100.942C67.8901 103.407 66.9567 105.785 65.2686 107.582L52.2882 121.303ZM45.6897 93.9552C42.0864 93.9552 39.1542 97.1007 39.1542 100.945C39.139 102.787 39.8336 104.564 41.0939 105.908L52.2778 117.749L63.4617 105.908C64.7219 104.564 65.4165 102.787 65.4014 100.945C65.4014 97.1007 62.4691 93.9552 58.8623 93.9552C56.7933 93.9552 54.0427 95.9403 53.466 98.593L52.4176 103.416L51.0895 98.6629C50.3905 96.1116 47.8986 93.9552 45.6723 93.9552" fill="white"/>
<path d="M82.7573 11.8829C43.5437 11.8829 11.6382 43.7919 11.6382 83.0054C11.6382 122.219 43.5437 154.128 82.7573 154.128C121.971 154.128 153.873 122.219 153.873 83.0054C153.873 43.7919 121.974 11.8829 82.7573 11.8829Z" fill="#0082C9"/>
<path d="M29.3228 63.2589H41.7019C45.7037 63.2589 48.4717 64.3074 50.2296 66.1003C51.7639 67.5962 52.5503 69.6162 52.5503 72.199V72.2724C52.5503 76.2741 50.4184 78.9303 47.1611 80.3108L53.4101 89.4397H45.0221L39.7482 81.5096H36.5678V89.4397H29.3228V63.2589ZM41.3664 75.8408C43.8339 75.8408 45.2563 74.6455 45.2563 72.7372V72.6639C45.2563 70.6053 43.7605 69.5603 41.328 69.5603H36.5783V75.8513L41.3664 75.8408Z" fill="white"/>
<path d="M53.5883 76.4349V76.358C53.5883 68.8404 59.6451 62.7451 67.7255 62.7451C75.8058 62.7451 81.7822 68.767 81.7822 76.2847V76.358C81.7822 83.8757 75.722 89.9884 67.6451 89.9884C59.5682 89.9884 53.5848 83.9701 53.5848 76.4524M74.3764 76.4524V76.3755C74.3764 72.601 71.6468 69.3087 67.6451 69.3087C63.6434 69.3087 61.0256 72.5241 61.0256 76.2986V76.372C61.0256 80.1501 63.7552 83.4423 67.722 83.4423C71.6888 83.4423 74.3624 80.2235 74.3624 76.4524" fill="white"/>
<path d="M83.1522 63.2589H93.2527C102.602 63.2589 108.022 68.6446 108.022 76.1903V76.2672C108.022 83.8233 102.525 89.4327 93.1024 89.4327H83.1522V63.2589ZM93.3645 83.0055C97.7018 83.0055 100.582 80.6114 100.582 76.386V76.3126C100.582 72.1186 97.7018 69.6931 93.3645 69.6931H90.4078V83.0055H93.3645Z" fill="white"/>
<path d="M109.476 76.4349V76.358C109.476 68.8404 115.533 62.7451 123.613 62.7451C131.694 62.7451 137.674 68.767 137.674 76.2847V76.358C137.674 83.8757 131.617 89.9884 123.537 89.9884C115.456 89.9884 109.476 83.9701 109.476 76.4524M130.268 76.4524V76.3755C130.268 72.601 127.538 69.3087 123.537 69.3087C119.535 69.3087 116.917 72.5241 116.917 76.2986V76.372C116.917 80.1501 119.65 83.4423 123.613 83.4423C127.577 83.4423 130.254 80.2235 130.254 76.4524" fill="white"/>
<path d="M37.7736 47.4372H42.1528C44.7355 47.4372 46.3991 48.7653 46.3991 51.0265V51.058C46.3991 53.466 44.5468 54.7347 42.006 54.7347H40.608V57.667H37.7771L37.7736 47.4372ZM41.9396 52.5154C42.9461 52.5154 43.5612 51.9911 43.5612 51.1873V51.1593C43.5612 50.2821 42.9461 49.8173 41.9256 49.8173H40.5975V52.5154H41.9396Z" fill="#FFD300"/>
<path d="M47.965 47.4372H52.795C54.3573 47.4372 55.4372 47.8461 56.1222 48.5451C56.4293 48.8578 56.6682 49.2307 56.824 49.6404C56.9798 50.05 57.0491 50.4875 57.0274 50.9252V50.9531C57.0527 51.6313 56.8637 52.3001 56.4873 52.8648C56.1109 53.4294 55.5661 53.8611 54.9304 54.0986L57.3769 57.66H54.1091L52.0506 54.5669H50.8099V57.667H47.9789L47.965 47.4372ZM52.6622 52.3301C53.6268 52.3301 54.1825 51.8653 54.1825 51.1209V51.0894C54.1825 50.2856 53.5989 49.8802 52.6482 49.8802H50.7959V52.3267L52.6622 52.3301Z" fill="#FFD300"/>
<path d="M58.4742 52.5748V52.5468C58.4742 49.6111 60.8403 47.231 63.9928 47.231C67.1453 47.231 69.4799 49.5831 69.4799 52.5154V52.5468C69.4799 55.4791 67.1173 57.8592 63.9648 57.8592C60.8124 57.8592 58.4742 55.5071 58.4742 52.5748ZM66.5931 52.5748V52.5468C66.6071 52.1916 66.5497 51.8372 66.4243 51.5046C66.2989 51.172 66.1079 50.868 65.8629 50.6105C65.6178 50.353 65.3235 50.1474 64.9975 50.0057C64.6714 49.8641 64.3203 49.7893 63.9648 49.7858C62.4166 49.7858 61.3821 51.044 61.3821 52.5154V52.5468C61.3821 54.0217 62.4305 55.3044 63.9928 55.3044C65.555 55.3044 66.5931 54.0497 66.5931 52.5748Z" fill="#FFD300"/>
<path d="M70.9723 52.5748V52.5468C70.9723 49.5691 73.3069 47.231 76.4769 47.231C77.9979 47.1801 79.4809 47.7127 80.6219 48.7198L78.9583 50.7224C78.2883 50.0989 77.406 49.754 76.4908 49.7578C75.016 49.7578 73.8766 50.9985 73.8766 52.5538V52.5818C73.8581 52.9537 73.9168 53.3254 74.049 53.6735C74.1811 54.0216 74.3839 54.3386 74.6446 54.6045C74.9053 54.8704 75.2181 55.0795 75.5635 55.2186C75.909 55.3577 76.2794 55.4238 76.6516 55.4127C77.2269 55.4388 77.7967 55.2915 78.2873 54.9898V53.7491H76.2707V51.6766H80.9714V56.269C79.7224 57.2985 78.1514 57.8564 76.5328 57.8452C73.3524 57.8452 70.9723 55.6573 70.9723 52.5608" fill="#FFD300"/>
<path d="M82.9146 47.4372H87.7481C89.3103 47.4372 90.3903 47.8461 91.0753 48.5451C91.3823 48.8578 91.6213 49.2307 91.7771 49.6404C91.9329 50.05 92.0021 50.4875 91.9805 50.9252V50.9531C92.0058 51.6313 91.8168 52.3001 91.4404 52.8648C91.0639 53.4294 90.5192 53.8611 89.8835 54.0986L92.33 57.66H89.0622L87.0037 54.5669H85.7629V57.667H82.9285L82.9146 47.4372ZM87.6153 52.3301C88.5799 52.3301 89.1356 51.8653 89.1356 51.1209V51.0894C89.1356 50.2856 88.5519 49.8802 87.6013 49.8802H85.749V52.3267L87.6153 52.3301Z" fill="#FFD300"/>
<path d="M97.1357 47.3638H99.8652L104.216 57.667H101.179L100.435 55.8426H96.4926L95.7621 57.667H92.7844L97.1357 47.3638ZM99.6171 53.6268L98.4777 50.719L97.3279 53.6268H99.6171Z" fill="#FFD300"/>
<path d="M105.576 47.4372H108.568L111.007 51.3935L113.443 47.4372H116.435V57.6565H113.618V51.7884L111.007 55.7867H110.948L108.351 51.8164V57.6565H105.576V47.4372Z" fill="#FFD300"/>
<path d="M122.146 47.3638H124.875L129.226 57.667H126.189L125.445 55.8426H121.506L120.776 57.667H117.798L122.146 47.3638ZM124.627 53.6268L123.488 50.719L122.334 53.6268H124.627Z" fill="#FFD300"/>
<path d="M76.4838 93.8364H69.438V119.126H76.4838V93.8364Z" fill="white"/>
<path d="M80.0557 93.8364H89.8206C98.8516 93.8364 104.091 99.0369 104.091 106.334V106.408C104.091 113.705 98.7782 119.122 89.6773 119.122H80.0661L80.0557 93.8364ZM89.9185 112.908C94.1124 112.908 96.9084 110.598 96.9084 106.516V106.443C96.9084 102.399 94.1124 100.05 89.9185 100.05H87.0631V112.908H89.9185Z" fill="white"/>
<path d="M112.629 93.6651H119.385L130.149 119.133H122.635L120.793 114.617H111.039L109.232 119.133H101.864L112.629 93.6651ZM118.769 109.165L115.952 101.976L113.097 109.165H118.769Z" fill="white"/>
<path d="M45.6896 92.732C41.4048 92.732 37.9308 96.4087 37.9308 100.938C37.9178 103.093 38.7308 105.17 40.2025 106.743L45.2982 112.133L52.2881 119.521L59.2781 112.133L64.3772 106.743C65.8503 105.171 66.6646 103.093 66.6525 100.938C66.6525 96.3947 63.175 92.732 58.8901 92.732C56.0942 92.732 52.9732 95.2309 52.2986 98.3239C51.4389 95.2379 48.4856 92.732 45.7036 92.732" fill="white"/>
</g>
</g>
<defs>
<clipPath id="clip0_5_3953">
<rect width="167" height="167" fill="white"/>
</clipPath>
</defs>
</svg>
