<svg width="12" height="12" viewBox="0 0 12 12" fill="none" xmlns="http://www.w3.org/2000/svg">
<g id="Camada_1" clip-path="url(#clip0_8_11073)">
<g id="Clip path group">
<mask id="mask0_8_11073" style="mask-type:luminance" maskUnits="userSpaceOnUse" x="0" y="0" width="12" height="12">
<g id="clip-path">
<path id="Vector" d="M11.1326 0.236954H0V11.3696H11.1326V0.236954Z" fill="white"/>
</g>
</mask>
<g mask="url(#mask0_8_11073)">
<g id="Group">
<path id="Vector_2" d="M11.1326 5.80326C11.1326 8.87709 8.64054 11.3696 5.56631 11.3696C2.49208 11.3696 0 8.87749 0 5.80326C0 2.72903 2.49208 0.236954 5.56631 0.236954C8.64054 0.236954 11.1326 2.72903 11.1326 5.80326Z" fill="#E02828"/>
<path id="Vector_3" d="M6.13326 5.80326L7.88654 4.04997C7.96174 3.97478 8.00398 3.87279 8.00398 3.76645C8.00398 3.6601 7.96174 3.55812 7.88654 3.48292C7.81135 3.40772 7.70936 3.36548 7.60302 3.36548C7.49667 3.36548 7.39468 3.40772 7.31949 3.48292L5.5662 5.23621L3.81291 3.48292C3.73772 3.40772 3.63573 3.36548 3.52939 3.36548C3.42304 3.36548 3.32106 3.40772 3.24586 3.48292C3.17066 3.55812 3.12842 3.6601 3.12842 3.76645C3.12842 3.87279 3.17066 3.97478 3.24586 4.04997L4.99915 5.80326L3.24586 7.55655C3.17066 7.63174 3.12842 7.73373 3.12842 7.84008C3.12842 7.94642 3.17066 8.04841 3.24586 8.1236C3.32106 8.1988 3.42304 8.24104 3.52939 8.24104C3.63573 8.24104 3.73772 8.1988 3.81291 8.1236L5.5662 6.37032L7.31949 8.1236C7.39468 8.1988 7.49667 8.24104 7.60302 8.24104C7.70936 8.24104 7.81135 8.1988 7.88654 8.1236C7.96174 8.04841 8.00398 7.94642 8.00398 7.84008C8.00398 7.73373 7.96174 7.63174 7.88654 7.55655L6.13326 5.80326Z" fill="white"/>
</g>
</g>
</g>
</g>
<defs>
<clipPath id="clip0_8_11073">
<rect width="11.1326" height="11.1326" fill="white" transform="translate(0 0.236954)"/>
</clipPath>
</defs>
</svg>
